<mxfile host="app.diagrams.net" modified="2024-07-23T14:17:02.125Z" agent="Mozilla/5.0 (X11; Ubuntu; Linux x86_64; rv:128.0) Gecko/20100101 Firefox/128.0" etag="h9yxFn3teuxrIKkWfIto" version="24.7.1" type="device">
  <diagram id="C5RBs43oDa-KdzZeNtuy" name="Page-1">
    <mxGraphModel dx="1434" dy="793" grid="1" gridSize="10" guides="1" tooltips="1" connect="1" arrows="1" fold="1" page="1" pageScale="1" pageWidth="827" pageHeight="1169" math="0" shadow="0">
      <root>
        <mxCell id="WIyWlLk6GJQsqaUBKTNV-0" />
        <mxCell id="WIyWlLk6GJQsqaUBKTNV-1" parent="WIyWlLk6GJQsqaUBKTNV-0" />
        <mxCell id="WIyWlLk6GJQsqaUBKTNV-4" value="Yes" style="rounded=0;html=1;jettySize=auto;orthogonalLoop=1;fontSize=11;endArrow=block;endFill=0;endSize=8;strokeWidth=1;shadow=0;labelBackgroundColor=none;edgeStyle=orthogonalEdgeStyle;" parent="WIyWlLk6GJQsqaUBKTNV-1" source="WIyWlLk6GJQsqaUBKTNV-6" edge="1">
          <mxGeometry y="20" relative="1" as="geometry">
            <mxPoint as="offset" />
            <mxPoint x="190" y="1120" as="targetPoint" />
          </mxGeometry>
        </mxCell>
        <mxCell id="EtLEllNZG6sJMNKWAGNf-31" style="edgeStyle=orthogonalEdgeStyle;rounded=0;orthogonalLoop=1;jettySize=auto;html=1;" edge="1" parent="WIyWlLk6GJQsqaUBKTNV-1" source="WIyWlLk6GJQsqaUBKTNV-6">
          <mxGeometry relative="1" as="geometry">
            <mxPoint x="130" y="1150" as="targetPoint" />
          </mxGeometry>
        </mxCell>
        <mxCell id="EtLEllNZG6sJMNKWAGNf-32" value="No" style="edgeLabel;html=1;align=center;verticalAlign=middle;resizable=0;points=[];" vertex="1" connectable="0" parent="EtLEllNZG6sJMNKWAGNf-31">
          <mxGeometry x="0.1913" y="6" relative="1" as="geometry">
            <mxPoint x="-12" y="-4" as="offset" />
          </mxGeometry>
        </mxCell>
        <mxCell id="WIyWlLk6GJQsqaUBKTNV-6" value="X" style="rhombus;whiteSpace=wrap;html=1;shadow=0;fontFamily=Helvetica;fontSize=12;align=center;strokeWidth=1;spacing=6;spacingTop=-4;" parent="WIyWlLk6GJQsqaUBKTNV-1" vertex="1">
          <mxGeometry x="40" y="1060" width="100" height="80" as="geometry" />
        </mxCell>
        <mxCell id="EtLEllNZG6sJMNKWAGNf-0" value="Inicialization" style="swimlane;whiteSpace=wrap;html=1;" vertex="1" parent="WIyWlLk6GJQsqaUBKTNV-1">
          <mxGeometry x="40" y="180" width="290" height="450" as="geometry" />
        </mxCell>
        <mxCell id="EtLEllNZG6sJMNKWAGNf-52" style="edgeStyle=orthogonalEdgeStyle;rounded=0;orthogonalLoop=1;jettySize=auto;html=1;exitX=0.5;exitY=1;exitDx=0;exitDy=0;" edge="1" parent="EtLEllNZG6sJMNKWAGNf-0" source="EtLEllNZG6sJMNKWAGNf-5" target="WIyWlLk6GJQsqaUBKTNV-3">
          <mxGeometry relative="1" as="geometry" />
        </mxCell>
        <mxCell id="EtLEllNZG6sJMNKWAGNf-5" value="Coordinate system initialization" style="rounded=1;whiteSpace=wrap;html=1;fontSize=12;glass=0;strokeWidth=1;shadow=0;" vertex="1" parent="EtLEllNZG6sJMNKWAGNf-0">
          <mxGeometry x="85" y="120" width="120" height="40" as="geometry" />
        </mxCell>
        <mxCell id="EtLEllNZG6sJMNKWAGNf-51" style="edgeStyle=orthogonalEdgeStyle;rounded=0;orthogonalLoop=1;jettySize=auto;html=1;exitX=0.5;exitY=1;exitDx=0;exitDy=0;entryX=0.5;entryY=0;entryDx=0;entryDy=0;" edge="1" parent="EtLEllNZG6sJMNKWAGNf-0" source="EtLEllNZG6sJMNKWAGNf-4" target="EtLEllNZG6sJMNKWAGNf-5">
          <mxGeometry relative="1" as="geometry" />
        </mxCell>
        <mxCell id="EtLEllNZG6sJMNKWAGNf-4" value="Initialization of all hardware" style="rounded=1;whiteSpace=wrap;html=1;fontSize=12;glass=0;strokeWidth=1;shadow=0;" vertex="1" parent="EtLEllNZG6sJMNKWAGNf-0">
          <mxGeometry x="85" y="40" width="120" height="40" as="geometry" />
        </mxCell>
        <mxCell id="EtLEllNZG6sJMNKWAGNf-3" value="Acquire initial position" style="rounded=1;whiteSpace=wrap;html=1;fontSize=12;glass=0;strokeWidth=1;shadow=0;" vertex="1" parent="EtLEllNZG6sJMNKWAGNf-0">
          <mxGeometry x="85" y="280" width="120" height="40" as="geometry" />
        </mxCell>
        <mxCell id="EtLEllNZG6sJMNKWAGNf-53" style="edgeStyle=orthogonalEdgeStyle;rounded=0;orthogonalLoop=1;jettySize=auto;html=1;exitX=0.5;exitY=1;exitDx=0;exitDy=0;entryX=0.5;entryY=0;entryDx=0;entryDy=0;" edge="1" parent="EtLEllNZG6sJMNKWAGNf-0" source="WIyWlLk6GJQsqaUBKTNV-3" target="EtLEllNZG6sJMNKWAGNf-3">
          <mxGeometry relative="1" as="geometry" />
        </mxCell>
        <mxCell id="WIyWlLk6GJQsqaUBKTNV-3" value="Module inicialization" style="rounded=1;whiteSpace=wrap;html=1;fontSize=12;glass=0;strokeWidth=1;shadow=0;" parent="EtLEllNZG6sJMNKWAGNf-0" vertex="1">
          <mxGeometry x="85" y="200" width="120" height="40" as="geometry" />
        </mxCell>
        <mxCell id="EtLEllNZG6sJMNKWAGNf-1" value="Perception" style="swimlane;whiteSpace=wrap;html=1;" vertex="1" parent="WIyWlLk6GJQsqaUBKTNV-1">
          <mxGeometry x="390" y="30" width="290" height="250" as="geometry" />
        </mxCell>
        <mxCell id="EtLEllNZG6sJMNKWAGNf-13" style="edgeStyle=orthogonalEdgeStyle;rounded=0;orthogonalLoop=1;jettySize=auto;html=1;exitX=0.5;exitY=1;exitDx=0;exitDy=0;entryX=0.5;entryY=0;entryDx=0;entryDy=0;" edge="1" parent="EtLEllNZG6sJMNKWAGNf-1">
          <mxGeometry relative="1" as="geometry">
            <mxPoint x="144.5" y="80" as="sourcePoint" />
            <mxPoint x="144.5" y="120" as="targetPoint" />
          </mxGeometry>
        </mxCell>
        <mxCell id="EtLEllNZG6sJMNKWAGNf-14" value="Cotton to collect?" style="edgeLabel;html=1;align=center;verticalAlign=middle;resizable=0;points=[];" vertex="1" connectable="0" parent="EtLEllNZG6sJMNKWAGNf-13">
          <mxGeometry x="0.1" y="2" relative="1" as="geometry">
            <mxPoint as="offset" />
          </mxGeometry>
        </mxCell>
        <mxCell id="EtLEllNZG6sJMNKWAGNf-12" value="Cotton detection and classification" style="rounded=1;whiteSpace=wrap;html=1;fontSize=12;glass=0;strokeWidth=1;shadow=0;" vertex="1" parent="EtLEllNZG6sJMNKWAGNf-1">
          <mxGeometry x="85" y="40" width="120" height="40" as="geometry" />
        </mxCell>
        <mxCell id="EtLEllNZG6sJMNKWAGNf-16" style="edgeStyle=orthogonalEdgeStyle;rounded=0;orthogonalLoop=1;jettySize=auto;html=1;exitX=0.5;exitY=1;exitDx=0;exitDy=0;entryX=0.5;entryY=0;entryDx=0;entryDy=0;" edge="1" parent="EtLEllNZG6sJMNKWAGNf-1" source="EtLEllNZG6sJMNKWAGNf-11" target="EtLEllNZG6sJMNKWAGNf-10">
          <mxGeometry relative="1" as="geometry" />
        </mxCell>
        <mxCell id="EtLEllNZG6sJMNKWAGNf-11" value="Semantic segmentation" style="rounded=1;whiteSpace=wrap;html=1;fontSize=12;glass=0;strokeWidth=1;shadow=0;" vertex="1" parent="EtLEllNZG6sJMNKWAGNf-1">
          <mxGeometry x="85" y="120" width="120" height="40" as="geometry" />
        </mxCell>
        <mxCell id="EtLEllNZG6sJMNKWAGNf-10" value="Centroid calculation" style="rounded=1;whiteSpace=wrap;html=1;fontSize=12;glass=0;strokeWidth=1;shadow=0;" vertex="1" parent="EtLEllNZG6sJMNKWAGNf-1">
          <mxGeometry x="85" y="190" width="120" height="40" as="geometry" />
        </mxCell>
        <mxCell id="EtLEllNZG6sJMNKWAGNf-17" value="Localization" style="swimlane;whiteSpace=wrap;html=1;" vertex="1" parent="WIyWlLk6GJQsqaUBKTNV-1">
          <mxGeometry x="390" y="530" width="290" height="190" as="geometry" />
        </mxCell>
        <mxCell id="EtLEllNZG6sJMNKWAGNf-20" value="Cotton world coordinate calculation" style="rounded=1;whiteSpace=wrap;html=1;fontSize=12;glass=0;strokeWidth=1;shadow=0;" vertex="1" parent="EtLEllNZG6sJMNKWAGNf-17">
          <mxGeometry x="57.5" y="130" width="175" height="40" as="geometry" />
        </mxCell>
        <mxCell id="EtLEllNZG6sJMNKWAGNf-26" style="edgeStyle=orthogonalEdgeStyle;rounded=0;orthogonalLoop=1;jettySize=auto;html=1;exitX=0.5;exitY=1;exitDx=0;exitDy=0;entryX=0.5;entryY=0;entryDx=0;entryDy=0;" edge="1" parent="EtLEllNZG6sJMNKWAGNf-17" source="EtLEllNZG6sJMNKWAGNf-25" target="EtLEllNZG6sJMNKWAGNf-20">
          <mxGeometry relative="1" as="geometry" />
        </mxCell>
        <mxCell id="EtLEllNZG6sJMNKWAGNf-25" value="Cotton boll depth" style="rounded=1;whiteSpace=wrap;html=1;fontSize=12;glass=0;strokeWidth=1;shadow=0;" vertex="1" parent="EtLEllNZG6sJMNKWAGNf-17">
          <mxGeometry x="57.5" y="50" width="175" height="40" as="geometry" />
        </mxCell>
        <mxCell id="EtLEllNZG6sJMNKWAGNf-27" value="Cotton boll sellection" style="swimlane;whiteSpace=wrap;html=1;" vertex="1" parent="WIyWlLk6GJQsqaUBKTNV-1">
          <mxGeometry x="390" y="310" width="290" height="190" as="geometry" />
        </mxCell>
        <mxCell id="EtLEllNZG6sJMNKWAGNf-28" value="Cotton boll selection by criteria" style="rounded=1;whiteSpace=wrap;html=1;fontSize=12;glass=0;strokeWidth=1;shadow=0;" vertex="1" parent="EtLEllNZG6sJMNKWAGNf-27">
          <mxGeometry x="57.5" y="130" width="175" height="40" as="geometry" />
        </mxCell>
        <mxCell id="EtLEllNZG6sJMNKWAGNf-29" style="edgeStyle=orthogonalEdgeStyle;rounded=0;orthogonalLoop=1;jettySize=auto;html=1;exitX=0.5;exitY=1;exitDx=0;exitDy=0;entryX=0.5;entryY=0;entryDx=0;entryDy=0;" edge="1" parent="EtLEllNZG6sJMNKWAGNf-27" source="EtLEllNZG6sJMNKWAGNf-30" target="EtLEllNZG6sJMNKWAGNf-28">
          <mxGeometry relative="1" as="geometry" />
        </mxCell>
        <mxCell id="EtLEllNZG6sJMNKWAGNf-30" value="Priority criteria application" style="rounded=1;whiteSpace=wrap;html=1;fontSize=12;glass=0;strokeWidth=1;shadow=0;" vertex="1" parent="EtLEllNZG6sJMNKWAGNf-27">
          <mxGeometry x="57.5" y="50" width="175" height="40" as="geometry" />
        </mxCell>
        <mxCell id="EtLEllNZG6sJMNKWAGNf-33" value="Manipulation" style="swimlane;whiteSpace=wrap;html=1;" vertex="1" parent="WIyWlLk6GJQsqaUBKTNV-1">
          <mxGeometry x="740" y="30" width="290" height="400" as="geometry" />
        </mxCell>
        <mxCell id="EtLEllNZG6sJMNKWAGNf-39" style="edgeStyle=orthogonalEdgeStyle;rounded=0;orthogonalLoop=1;jettySize=auto;html=1;exitX=0.5;exitY=1;exitDx=0;exitDy=0;entryX=0.5;entryY=0;entryDx=0;entryDy=0;" edge="1" parent="EtLEllNZG6sJMNKWAGNf-33" source="EtLEllNZG6sJMNKWAGNf-34" target="EtLEllNZG6sJMNKWAGNf-37">
          <mxGeometry relative="1" as="geometry" />
        </mxCell>
        <mxCell id="EtLEllNZG6sJMNKWAGNf-34" value="Optimal gripping algorithm for cotton extraction (pose)" style="rounded=1;whiteSpace=wrap;html=1;fontSize=12;glass=0;strokeWidth=1;shadow=0;" vertex="1" parent="EtLEllNZG6sJMNKWAGNf-33">
          <mxGeometry x="57.5" y="120" width="175" height="40" as="geometry" />
        </mxCell>
        <mxCell id="EtLEllNZG6sJMNKWAGNf-35" style="edgeStyle=orthogonalEdgeStyle;rounded=0;orthogonalLoop=1;jettySize=auto;html=1;exitX=0.5;exitY=1;exitDx=0;exitDy=0;entryX=0.5;entryY=0;entryDx=0;entryDy=0;" edge="1" parent="EtLEllNZG6sJMNKWAGNf-33" source="EtLEllNZG6sJMNKWAGNf-36" target="EtLEllNZG6sJMNKWAGNf-34">
          <mxGeometry relative="1" as="geometry" />
        </mxCell>
        <mxCell id="EtLEllNZG6sJMNKWAGNf-36" value="Obstacle evasion algorithm for robotic arm path planning" style="rounded=1;whiteSpace=wrap;html=1;fontSize=12;glass=0;strokeWidth=1;shadow=0;" vertex="1" parent="EtLEllNZG6sJMNKWAGNf-33">
          <mxGeometry x="57.5" y="50" width="175" height="40" as="geometry" />
        </mxCell>
        <mxCell id="EtLEllNZG6sJMNKWAGNf-42" style="edgeStyle=orthogonalEdgeStyle;rounded=0;orthogonalLoop=1;jettySize=auto;html=1;exitX=0.5;exitY=1;exitDx=0;exitDy=0;entryX=0.5;entryY=0;entryDx=0;entryDy=0;" edge="1" parent="EtLEllNZG6sJMNKWAGNf-33" source="EtLEllNZG6sJMNKWAGNf-37" target="EtLEllNZG6sJMNKWAGNf-40">
          <mxGeometry relative="1" as="geometry" />
        </mxCell>
        <mxCell id="EtLEllNZG6sJMNKWAGNf-37" value="Robotic arm movement towards goal" style="rounded=1;whiteSpace=wrap;html=1;fontSize=12;glass=0;strokeWidth=1;shadow=0;" vertex="1" parent="EtLEllNZG6sJMNKWAGNf-33">
          <mxGeometry x="57.5" y="190" width="175" height="40" as="geometry" />
        </mxCell>
        <mxCell id="EtLEllNZG6sJMNKWAGNf-45" style="edgeStyle=orthogonalEdgeStyle;rounded=0;orthogonalLoop=1;jettySize=auto;html=1;exitX=0.5;exitY=1;exitDx=0;exitDy=0;entryX=0.5;entryY=0;entryDx=0;entryDy=0;" edge="1" parent="EtLEllNZG6sJMNKWAGNf-33" source="EtLEllNZG6sJMNKWAGNf-40" target="EtLEllNZG6sJMNKWAGNf-44">
          <mxGeometry relative="1" as="geometry" />
        </mxCell>
        <mxCell id="EtLEllNZG6sJMNKWAGNf-40" value="Cotton boll vacuum (turn on vacuum / turn off)" style="rounded=1;whiteSpace=wrap;html=1;fontSize=12;glass=0;strokeWidth=1;shadow=0;" vertex="1" parent="EtLEllNZG6sJMNKWAGNf-33">
          <mxGeometry x="57.5" y="260" width="175" height="40" as="geometry" />
        </mxCell>
        <mxCell id="EtLEllNZG6sJMNKWAGNf-44" value="Robot to initial position before collection" style="rounded=1;whiteSpace=wrap;html=1;fontSize=12;glass=0;strokeWidth=1;shadow=0;" vertex="1" parent="EtLEllNZG6sJMNKWAGNf-33">
          <mxGeometry x="57.5" y="330" width="175" height="40" as="geometry" />
        </mxCell>
        <mxCell id="EtLEllNZG6sJMNKWAGNf-54" style="edgeStyle=orthogonalEdgeStyle;rounded=0;orthogonalLoop=1;jettySize=auto;html=1;exitX=0.5;exitY=1;exitDx=0;exitDy=0;entryX=0.5;entryY=0;entryDx=0;entryDy=0;" edge="1" parent="WIyWlLk6GJQsqaUBKTNV-1" source="EtLEllNZG6sJMNKWAGNf-46" target="EtLEllNZG6sJMNKWAGNf-0">
          <mxGeometry relative="1" as="geometry" />
        </mxCell>
        <mxCell id="EtLEllNZG6sJMNKWAGNf-46" value="OFF (*)" style="swimlane;whiteSpace=wrap;html=1;" vertex="1" parent="WIyWlLk6GJQsqaUBKTNV-1">
          <mxGeometry x="40" y="30" width="290" height="120" as="geometry" />
        </mxCell>
        <mxCell id="EtLEllNZG6sJMNKWAGNf-49" value="Stand-by" style="rounded=1;whiteSpace=wrap;html=1;fontSize=12;glass=0;strokeWidth=1;shadow=0;" vertex="1" parent="EtLEllNZG6sJMNKWAGNf-46">
          <mxGeometry x="57.5" y="50" width="175" height="40" as="geometry" />
        </mxCell>
        <mxCell id="EtLEllNZG6sJMNKWAGNf-50" value="&lt;div align=&quot;left&quot;&gt;* = Maybe this state does not end in the final solution&lt;br&gt;&lt;/div&gt;" style="text;html=1;align=left;verticalAlign=middle;whiteSpace=wrap;rounded=0;" vertex="1" parent="WIyWlLk6GJQsqaUBKTNV-1">
          <mxGeometry x="40" y="1000" width="300" height="30" as="geometry" />
        </mxCell>
      </root>
    </mxGraphModel>
  </diagram>
</mxfile>
